<?xml version="1.0" encoding="UTF-8"?>
<svg width="40" height="40" version="1.1" viewBox="0 0 40 40" xmlns="http://www.w3.org/2000/svg" xmlns:cc="http://creativecommons.org/ns#" xmlns:dc="http://purl.org/dc/elements/1.1/" xmlns:rdf="http://www.w3.org/1999/02/22-rdf-syntax-ns#">
 <metadata>
  <rdf:RDF>
   <cc:Work rdf:about="">
    <dc:format>image/svg+xml</dc:format>
    <dc:type rdf:resource="http://purl.org/dc/dcmitype/StillImage"/>
    <dc:title/>
   </cc:Work>
  </rdf:RDF>
 </metadata>
 <linearGradient id="Ld6sqrtcxMyckEl6xeDdMa" x1="9.993" x2="40.615" y1="9.993" y2="40.615" gradientTransform="translate(-4,-4)" gradientUnits="userSpaceOnUse">
  <stop stop-color="#2aa4f4" offset="0"/>
  <stop stop-color="#007ad9" offset="1"/>
 </linearGradient>
 <path d="m20 0c-11.046 0-20 8.954-20 20s8.954 20 20 20 20-8.954 20-20-8.954-20-20-20z" fill="url(#Ld6sqrtcxMyckEl6xeDdMa)"/>
 <path d="m22.707 25.301h5.176l0.813-5.258h-5.989v-2.874c0-2.184 0.714-4.121 2.757-4.121h3.283v-4.588c-0.577-0.078-1.797-0.248-4.102-0.248-4.814 0-7.636 2.542-7.636 8.334v3.498h-4.949v5.258h4.948v14.452c0.98 0.146 1.973 0.246 2.992 0.246 0.921 0 1.82-0.084 2.707-0.204z" fill="#fff"/>
</svg>
